<?xml version="1.0" encoding="UTF-8" standalone="no"?>
<!DOCTYPE score-partwise PUBLIC
 "-//Recordare//DTD MusicXML 3.1 Partwise//EN"
 "http://www.musicxml.org/dtds/partwise.dtd">
<score-partwise version="3.1">
 <part-list>
 <score-part id="P1">
 <part-name>Music</part-name>
 </score-part>
 </part-list>
 <part id="P1">
 <measure number="1">
 <attributes>
 <divisions>1</divisions>
 <key>
 <fifths>0</fifths>
 </key>
 <time>
 <beats>4</beats>
 <beat-type>4</beat-type>
 </time>
 <clef>
 <sign>G</sign>
 <line>2</line>
 </clef>
 </attributes>
 <note>
  <pitch>
   <step>E</step>
   <octave>4</octave>
  </pitch>
  <duration>1.0</duration>
  <type>quarter</type>
</note>
 <note>
  <pitch>
   <step>A</step>
    <alter>-1</alter>
   <octave>4</octave>
  </pitch>
  <duration>1.0</duration>
  <type>quarter</type>
</note>
 <note>
  <pitch>
   <step>B</step>
   <octave>4</octave>
  </pitch>
  <duration>1.0</duration>
  <type>quarter</type>
</note>
<note>
<rest>
</rest>
<duration>1.0</duration>
<type>quarter</type>
</note>
</measure>
<measure number="2">
 <note>
  <pitch>
   <step>E</step>
   <octave>4</octave>
  </pitch>
  <duration>4</duration>
  <tied type="start"/>
  <notations>
   <tied type="start"/>
  </notations>
  <type>whole</type>
</note>
 <note>
 <chord/>
  <pitch>
   <step>A</step>
    <alter>-1</alter>
   <octave>4</octave>
  </pitch>
  <duration>4</duration>
  <tied type="start"/>
  <notations>
   <tied type="start"/>
  </notations>
  <type>whole</type>
</note>
 <note>
 <chord/>
  <pitch>
   <step>B</step>
   <octave>4</octave>
  </pitch>
  <duration>4</duration>
  <tied type="start"/>
  <notations>
   <tied type="start"/>
  </notations>
  <type>whole</type>
</note>
</measure>
<measure number="3">
 <note>
  <pitch>
   <step>E</step>
   <octave>4</octave>
  </pitch>
  <duration>4</duration>
  <tied type="stop"/>
  <tied type="start"/>
  <notations>
   <tied type="stop"/>
   <tied type="start"/>
  </notations>
  <type>whole</type>
</note>
 <note>
 <chord/>
  <pitch>
   <step>A</step>
    <alter>-1</alter>
   <octave>4</octave>
  </pitch>
  <duration>4</duration>
  <tied type="stop"/>
  <tied type="start"/>
  <notations>
   <tied type="stop"/>
   <tied type="start"/>
  </notations>
  <type>whole</type>
</note>
 <note>
 <chord/>
  <pitch>
   <step>B</step>
   <octave>4</octave>
  </pitch>
  <duration>4</duration>
  <tied type="stop"/>
  <tied type="start"/>
  <notations>
   <tied type="stop"/>
   <tied type="start"/>
  </notations>
  <type>whole</type>
</note>
</measure>
<measure number="4">
 <note>
  <pitch>
   <step>E</step>
   <octave>4</octave>
  </pitch>
  <duration>4.0</duration>
  <tied type="stop"/>
  <type>whole</type>
  <notations>
   <tied type="stop"/>
  </notations>
</note>
 <note>
 <chord/>
  <pitch>
   <step>A</step>
    <alter>-1</alter>
   <octave>4</octave>
  </pitch>
  <duration>4.0</duration>
  <tied type="stop"/>
  <type>whole</type>
  <notations>
   <tied type="stop"/>
  </notations>
</note>
 <note>
 <chord/>
  <pitch>
   <step>B</step>
   <octave>4</octave>
  </pitch>
  <duration>4.0</duration>
  <tied type="stop"/>
  <type>whole</type>
  <notations>
   <tied type="stop"/>
  </notations>
</note>
</measure>
<measure number="5">
<note>
<rest>
</rest>
<duration>2.0</duration>
<type>half</type>
</note>
 <note>
  <pitch>
   <step>E</step>
   <octave>4</octave>
  </pitch>
  <duration>1.0</duration>
  <type>quarter</type>
</note>
 <note>
  <pitch>
   <step>G</step>
   <octave>4</octave>
  </pitch>
  <duration>1.0</duration>
  <type>quarter</type>
</note>
</measure>
<measure number="6">
 <note>
  <pitch>
   <step>B</step>
   <octave>4</octave>
  </pitch>
  <duration>1.0</duration>
  <type>quarter</type>
</note>
<note>
<rest>
</rest>
<duration>1.0</duration>
<type>quarter</type>
</note>
 <note>
  <pitch>
   <step>E</step>
   <octave>4</octave>
  </pitch>
  <duration>2</duration>
  <tied type="start"/>
  <notations>
   <tied type="start"/>
  </notations>
  <type>half</type>
</note>
 <note>
 <chord/>
  <pitch>
   <step>G</step>
   <octave>4</octave>
  </pitch>
  <duration>2</duration>
  <tied type="start"/>
  <notations>
   <tied type="start"/>
  </notations>
  <type>half</type>
</note>
 <note>
 <chord/>
  <pitch>
   <step>B</step>
   <octave>4</octave>
  </pitch>
  <duration>2</duration>
  <tied type="start"/>
  <notations>
   <tied type="start"/>
  </notations>
  <type>half</type>
</note>
</measure>
<measure number="7">
 <note>
  <pitch>
   <step>E</step>
   <octave>4</octave>
  </pitch>
  <duration>4</duration>
  <tied type="stop"/>
  <tied type="start"/>
  <notations>
   <tied type="stop"/>
   <tied type="start"/>
  </notations>
  <type>whole</type>
</note>
 <note>
 <chord/>
  <pitch>
   <step>G</step>
   <octave>4</octave>
  </pitch>
  <duration>4</duration>
  <tied type="stop"/>
  <tied type="start"/>
  <notations>
   <tied type="stop"/>
   <tied type="start"/>
  </notations>
  <type>whole</type>
</note>
 <note>
 <chord/>
  <pitch>
   <step>B</step>
   <octave>4</octave>
  </pitch>
  <duration>4</duration>
  <tied type="stop"/>
  <tied type="start"/>
  <notations>
   <tied type="stop"/>
   <tied type="start"/>
  </notations>
  <type>whole</type>
</note>
</measure>
<measure number="8">
 <note>
  <pitch>
   <step>E</step>
   <octave>4</octave>
  </pitch>
  <duration>4</duration>
  <tied type="stop"/>
  <tied type="start"/>
  <notations>
   <tied type="stop"/>
   <tied type="start"/>
  </notations>
  <type>whole</type>
</note>
 <note>
 <chord/>
  <pitch>
   <step>G</step>
   <octave>4</octave>
  </pitch>
  <duration>4</duration>
  <tied type="stop"/>
  <tied type="start"/>
  <notations>
   <tied type="stop"/>
   <tied type="start"/>
  </notations>
  <type>whole</type>
</note>
 <note>
 <chord/>
  <pitch>
   <step>B</step>
   <octave>4</octave>
  </pitch>
  <duration>4</duration>
  <tied type="stop"/>
  <tied type="start"/>
  <notations>
   <tied type="stop"/>
   <tied type="start"/>
  </notations>
  <type>whole</type>
</note>
</measure>
<measure number="9">
 <note>
  <pitch>
   <step>E</step>
   <octave>4</octave>
  </pitch>
  <duration>2.0</duration>
  <tied type="stop"/>
  <type>half</type>
  <notations>
   <tied type="stop"/>
  </notations>
</note>
 <note>
 <chord/>
  <pitch>
   <step>G</step>
   <octave>4</octave>
  </pitch>
  <duration>2.0</duration>
  <tied type="stop"/>
  <type>half</type>
  <notations>
   <tied type="stop"/>
  </notations>
</note>
 <note>
 <chord/>
  <pitch>
   <step>B</step>
   <octave>4</octave>
  </pitch>
  <duration>2.0</duration>
  <tied type="stop"/>
  <type>half</type>
  <notations>
   <tied type="stop"/>
  </notations>
</note>
<note>
<rest>
</rest>
<duration>2.0</duration>
<type>half</type>
</note>
</measure>
<measure number="10">
 <note>
  <pitch>
   <step>E</step>
   <octave>4</octave>
  </pitch>
  <duration>1.25</duration>
  <type>null</type>
</note>
 <note>
  <pitch>
   <step>B</step>
   <octave>4</octave>
  </pitch>
  <duration>1.25</duration>
  <type>null</type>
</note>
 <note>
  <pitch>
   <step>E</step>
   <octave>5</octave>
  </pitch>
  <duration>1.25</duration>
  <type>null</type>
</note>
<note>
<rest>
</rest>
<duration>0.75</duration>
<type>null</type>
</note>
</measure>
</part>
</score-partwise>